<svg xmlns="http://www.w3.org/2000/svg" xmlns:xlink="http://www.w3.org/1999/xlink" width="108" height="108" viewBox="0 0 108 108">
  <defs>
    <filter id="Trazado_978625" x="0" y="0" width="108" height="108" filterUnits="userSpaceOnUse">
      <feOffset dy="3" input="SourceAlpha"/>
      <feGaussianBlur stdDeviation="3" result="blur"/>
      <feFlood flood-opacity="0.161"/>
      <feComposite operator="in" in2="blur"/>
      <feComposite in="SourceGraphic"/>
    </filter>
  </defs>
  <g id="_26" data-name="26" transform="translate(-171 -5021.059)">
    <g id="Grupo_1143740" data-name="Grupo 1143740" transform="translate(-26 2822.059)">
      <g transform="matrix(1, 0, 0, 1, 197, 2199)" filter="url(#Trazado_978625)">
        <g id="Trazado_978625-2" data-name="Trazado 978625" transform="translate(9 6)" fill="#dbe7fc">
          <path d="M 45 88.5 C 39.12687683105469 88.5 33.43022537231445 87.35007476806641 28.06830024719238 85.08217620849609 C 22.88852500915527 82.89131164550781 18.23629951477051 79.75458526611328 14.2408504486084 75.75914764404297 C 10.24541282653809 71.76370239257812 7.108687400817871 67.11147308349609 4.917825222015381 61.93170166015625 C 2.649924993515015 56.56977462768555 1.5 50.87312316894531 1.5 45 C 1.5 39.12687683105469 2.649924993515015 33.43022537231445 4.917825222015381 28.06830024719238 C 7.108687400817871 22.88852500915527 10.24541282653809 18.23629951477051 14.2408504486084 14.2408504486084 C 18.23629951477051 10.24541282653809 22.88852500915527 7.108687400817871 28.06830024719238 4.917825222015381 C 33.43022537231445 2.649924993515015 39.12687683105469 1.5 45 1.5 C 50.87312316894531 1.5 56.56977462768555 2.649924993515015 61.93170166015625 4.917825222015381 C 67.11147308349609 7.108687400817871 71.76370239257812 10.24541282653809 75.75914764404297 14.2408504486084 C 79.75458526611328 18.23629951477051 82.89131164550781 22.88852500915527 85.08217620849609 28.06830024719238 C 87.35007476806641 33.43022537231445 88.5 39.12687683105469 88.5 45 C 88.5 50.87312316894531 87.35007476806641 56.56977462768555 85.08217620849609 61.93170166015625 C 82.89131164550781 67.11147308349609 79.75458526611328 71.76370239257812 75.75914764404297 75.75914764404297 C 71.76370239257812 79.75458526611328 67.11147308349609 82.89131164550781 61.93170166015625 85.08217620849609 C 56.56977462768555 87.35007476806641 50.87312316894531 88.5 45 88.5 Z" stroke="none"/>
          <path d="M 45 3 C 39.32871246337891 3 33.82865524291992 4.110054016113281 28.65262985229492 6.299339294433594 C 23.65165710449219 8.414573669433594 19.15968322753906 11.44334411621094 15.301513671875 15.301513671875 C 11.44334411621094 19.15968322753906 8.414573669433594 23.65165710449219 6.299339294433594 28.65262985229492 C 4.110054016113281 33.82865524291992 3 39.32871246337891 3 45 C 3 50.67128753662109 4.110054016113281 56.17134475708008 6.299339294433594 61.34737396240234 C 8.414573669433594 66.34834289550781 11.44334411621094 70.84031677246094 15.301513671875 74.698486328125 C 19.15968322753906 78.55665588378906 23.65165710449219 81.58542633056641 28.65262985229492 83.70066070556641 C 33.82865524291992 85.88994598388672 39.32871246337891 87 45 87 C 50.67128753662109 87 56.17134475708008 85.88994598388672 61.34737396240234 83.70066070556641 C 66.34834289550781 81.58542633056641 70.84031677246094 78.55665588378906 74.698486328125 74.698486328125 C 78.55665588378906 70.84031677246094 81.58542633056641 66.34834289550781 83.70066070556641 61.34737396240234 C 85.88994598388672 56.17134475708008 87 50.67128753662109 87 45 C 87 39.32871246337891 85.88994598388672 33.82865524291992 83.70066070556641 28.65262985229492 C 81.58542633056641 23.65165710449219 78.55665588378906 19.15968322753906 74.698486328125 15.301513671875 C 70.84031677246094 11.44334411621094 66.34834289550781 8.414573669433594 61.34737396240234 6.299339294433594 C 56.17134475708008 4.110054016113281 50.67128753662109 3 45 3 M 45 0 C 69.85281372070312 0 90 20.14718627929688 90 45 C 90 69.85281372070312 69.85281372070312 90 45 90 C 20.14718627929688 90 0 69.85281372070312 0 45 C 0 20.14718627929688 20.14718627929688 0 45 0 Z" stroke="none" fill="#0d5d91"/>
        </g>
      </g>
    </g>
    <g id="Fill_out_line" transform="translate(168.622 5013.556)">
      <path id="Trazado_978648" data-name="Trazado 978648" d="M187.5,53.675a29.736,29.736,0,1,1-.607-6.006A29.752,29.752,0,0,1,187.5,53.675Z" transform="translate(-92.166 -6.507)" fill="#529ddf"/>
      <g id="Grupo_1143769" data-name="Grupo 1143769" transform="translate(35.828 18.014)">
        <path id="Trazado_978649" data-name="Trazado 978649" d="M156.306,69.276,149.222,80.61l-4.934,2.467a29.761,29.761,0,0,1,7.47-55.707l3.131,3.653-8.5,17H139.3v5.667h5.667l5.667,2.834v4.25Z" transform="translate(-127.964 -27.37)" fill="#7ab355"/>
        <path id="Trazado_978650" data-name="Trazado 978650" d="M337.165,50.776,329,46.694l-4.25-4.25L312,43.861v-8.5l6.606-2.72A29.828,29.828,0,0,1,337.165,50.776Z" transform="translate(-279.408 -31.707)" fill="#7ab355"/>
        <path id="Trazado_978651" data-name="Trazado 978651" d="M302.721,283.221A29.774,29.774,0,0,1,276.15,293.96l.682-5.46,5.667-2.833,4.25-5.667,2.834,2.834L299.5,280Z" transform="translate(-249.907 -235.26)" fill="#7ab355"/>
      </g>
      <path id="Trazado_978652" data-name="Trazado 978652" d="M152.5,317.752H144L145.417,288h5.667Z" transform="translate(-105.332 -223.83)" fill="#ba8b5d"/>
      <path id="Trazado_978653" data-name="Trazado 978653" d="M32,344H46.168v1.417a7.084,7.084,0,1,1-14.168,0Z" transform="translate(-13.167 -269.913)" fill="#fab53f"/>
      <path id="Trazado_978654" data-name="Trazado 978654" d="M232,344h14.168v1.417a7.084,7.084,0,1,1-14.168,0Z" transform="translate(-177.747 -269.913)" fill="#fab53f"/>
      <path id="Trazado_978655" data-name="Trazado 978655" d="M117.667,456h8.5a5.667,5.667,0,0,1,5.667,5.667H112A5.667,5.667,0,0,1,117.667,456Z" transform="translate(-78.999 -362.078)" fill="#9f764a"/>
      <path id="Trazado_978656" data-name="Trazado 978656" d="M75,241.511a2.833,2.833,0,0,0-2.834-2.834,14.037,14.037,0,0,1-7.787-2.358,8.159,8.159,0,0,0-9.623.418l-2.425,1.94H46.668l-2.425-1.94a8.159,8.159,0,0,0-9.623-.418,14.038,14.038,0,0,1-7.787,2.358,2.834,2.834,0,1,0,0,5.667,14.037,14.037,0,0,0,7.787-2.358,8.159,8.159,0,0,1,9.623.418l2.425,1.94h5.667l2.425-1.94a8.159,8.159,0,0,1,9.623-.418,14.038,14.038,0,0,0,7.787,2.358A2.833,2.833,0,0,0,75,241.511Z" transform="translate(-6.583 -180.174)" fill="#9f764a"/>
      <path id="Trazado_978657" data-name="Trazado 978657" d="M152,216.5l1.417-8.5h2.834l1.417,8.5Z" transform="translate(-111.915 -157.998)" fill="#ba8b5d"/>
      <ellipse id="Elipse_11549" data-name="Elipse 11549" cx="4.083" cy="4.537" rx="4.083" ry="4.537" transform="translate(38.684 44.128)" fill="#9f764a"/>
      <path id="Trazado_978658" data-name="Trazado 978658" d="M153.792,16a31.2,31.2,0,0,0-30.6,25.233l2.782.536a28.358,28.358,0,0,1,21.339-22.184l1.962,2.289-7.688,15.377h-4.969a1.417,1.417,0,0,0-1.417,1.417v5.667a1.417,1.417,0,0,0,1.417,1.417h4.093l4.585,2.292v3.375h2.834v-4.25a1.417,1.417,0,0,0-.783-1.267l-5.667-2.834a1.416,1.416,0,0,0-.634-.15h-3.011V40.085h4.427a1.417,1.417,0,0,0,1.267-.783l8.5-17a1.416,1.416,0,0,0-.191-1.556l-1.479-1.726a28.408,28.408,0,0,1,8.18.247l-2.649,1.091a1.416,1.416,0,0,0-.877,1.31v8.5a1.417,1.417,0,0,0,1.417,1.417,1.4,1.4,0,0,0,.156-.009l12.074-1.341L172.625,34a1.419,1.419,0,0,0,.368.265l7.643,3.821a28.359,28.359,0,0,1-3.924,25.745l-2.083-2.083a1.416,1.416,0,0,0-1.391-.36L164.122,64l-2.244-2.244-2,2,2.833,2.834a1.417,1.417,0,0,0,1.391.36l9.116-2.6,1.7,1.7A28.468,28.468,0,0,1,160.54,74.7l.672,2.753A31.321,31.321,0,0,0,178.2,66.557a30.84,30.84,0,0,0,6.763-19.388A31.2,31.2,0,0,0,153.792,16Zm20.674,15.837-4.088-4.088a1.421,1.421,0,0,0-1.158-.406l-11.178,1.242V22.616l5.224-2.151A28.491,28.491,0,0,1,178.9,34.056Z" transform="translate(-88.206)"/>
      <path id="Trazado_978659" data-name="Trazado 978659" d="M69.837,186.4a4.255,4.255,0,0,0-4.25-4.25,12.58,12.58,0,0,1-7-2.12,9.543,9.543,0,0,0-11.294.49l-.539.432-.459-2.753a5.667,5.667,0,1,0-6.75,0l-.459,2.753-.539-.432a9.542,9.542,0,0,0-11.294-.49,12.581,12.581,0,0,1-7,2.12,4.25,4.25,0,1,0,0,8.5,15.535,15.535,0,0,0,2.336-.177L17.632,198.4h0a1.408,1.408,0,0,0-.217.75v1.417a8.5,8.5,0,0,0,17,0v-1.417a1.407,1.407,0,0,0-.217-.75h0l-6.162-9.859c.265-.155.526-.315.783-.486a6.718,6.718,0,0,1,7.952.345l1.861,1.488L37.311,217.7a7.1,7.1,0,0,0-5.727,6.952A1.417,1.417,0,0,0,33,226.071H52.836a1.417,1.417,0,0,0,1.417-1.417,7.1,7.1,0,0,0-5.727-6.952L47.2,189.89l1.861-1.488a6.72,6.72,0,0,1,7.952-.345,15.554,15.554,0,0,0,1.845,1.053L53.051,198.4h0a1.409,1.409,0,0,0-.216.75v1.417a8.5,8.5,0,0,0,17,0v-1.417a1.408,1.408,0,0,0-.216-.75h0l-4.858-7.774c.274.015.548.024.823.024a4.255,4.255,0,0,0,4.25-4.25ZM42.918,170.817a2.834,2.834,0,1,1-2.834,2.834A2.833,2.833,0,0,1,42.918,170.817Zm0,8.5a5.7,5.7,0,0,0,.682-.043l.479,2.876H41.757l.479-2.876A5.692,5.692,0,0,0,42.918,179.318Zm-17,11.174,4.528,7.244H21.39Zm0,15.744a5.673,5.673,0,0,1-5.667-5.667H31.584A5.673,5.673,0,0,1,25.917,206.236ZM44.4,190.652l1.282,26.918H40.154l1.282-26.918Zm6.775,32.585H34.661a4.258,4.258,0,0,1,4.007-2.834h8.5A4.258,4.258,0,0,1,51.176,223.237Zm2.1-39.155a9.556,9.556,0,0,0-5.979,2.106l-2.037,1.63H40.582l-2.037-1.63a9.542,9.542,0,0,0-11.294-.49,12.58,12.58,0,0,1-7,2.12,1.417,1.417,0,0,1,0-2.834,15.408,15.408,0,0,0,8.573-2.6,6.718,6.718,0,0,1,7.952.345l2.425,1.94a1.417,1.417,0,0,0,.885.31h5.667a1.417,1.417,0,0,0,.885-.31l2.425-1.94a6.72,6.72,0,0,1,7.952-.345,15.406,15.406,0,0,0,8.573,2.6,1.417,1.417,0,1,1,0,2.834,12.58,12.58,0,0,1-7-2.12,9.566,9.566,0,0,0-5.315-1.616Zm8.066,6.409,4.527,7.244H56.809Zm0,15.745a5.673,5.673,0,0,1-5.667-5.667H67A5.673,5.673,0,0,1,61.336,206.236Z" transform="translate(0 -125.065)"/>
    </g>
  </g>
</svg>
