<svg xmlns="http://www.w3.org/2000/svg" width="190" height="131" viewBox="0 0 190 131">
  <g id="_19" data-name="19" transform="translate(-1230 -4175.059)">
    <rect id="Rect치ngulo_405167" data-name="Rect치ngulo 405167" width="190" height="131" rx="9" transform="translate(1230 4175.059)" fill="#f0d327"/>
    <g id="bill-rights_17977473" transform="translate(1254.076 4187.223)">
      <path id="Trazado_978641" data-name="Trazado 978641" d="M34.049,255.7H120.7a1.044,1.044,0,0,1,1.043,1.043v46.718A1.043,1.043,0,0,1,120.7,304.5H34.049a1.044,1.044,0,0,1-1.043-1.043V256.742a1.044,1.044,0,0,1,1.043-1.043Z" transform="translate(-6.448 -202.423)" fill="#c3c3c9"/>
      <g id="Grupo_1143767" data-name="Grupo 1143767" transform="translate(26.809 16.804)">
        <path id="Trazado_978642" data-name="Trazado 978642" d="M263.4,218.533h29.579v48.8H262.423a7.412,7.412,0,0,0-6.417,3.732V225.928a7.416,7.416,0,0,1,7.395-7.395Z" transform="translate(-211.89 -189.456)" fill="#f0e3df" fill-rule="evenodd"/>
        <path id="Trazado_978643" data-name="Trazado 978643" d="M99.752,218.533H70.173v48.8h30.556a7.412,7.412,0,0,1,6.417,3.732V225.928a7.416,7.416,0,0,0-7.395-7.395Z" transform="translate(-63.03 -189.456)" fill="#eceff1" fill-rule="evenodd"/>
        <path id="Trazado_978644" data-name="Trazado 978644" d="M58.616,216.673a12.2,12.2,0,0,1-24.344,0,.793.793,0,0,1,.794-.851H57.822A.793.793,0,0,1,58.616,216.673Z" transform="translate(-34.27 -187.284)" fill="#ffd987" fill-rule="evenodd"/>
        <path id="Trazado_978645" data-name="Trazado 978645" d="M379.71,216.673a12.2,12.2,0,0,1-24.344,0,.793.793,0,0,1,.794-.851h22.756A.793.793,0,0,1,379.71,216.673Z" transform="translate(-291.48 -187.284)" fill="#ffd987" fill-rule="evenodd"/>
        <path id="Trazado_978646" data-name="Trazado 978646" d="M179.158,110.344l-.165,10.923h21.256l-.126-5.688a12.754,12.754,0,0,1,1.445-6.338c3.3-6.488,6.815-7.961,7.883-16.3.447-3.485.108-6.683-1.156-8.813a5.329,5.329,0,0,0-4.277-2.54V77.209a3.587,3.587,0,0,0-7.174,0V76.146a3.759,3.759,0,1,0-7.517,0V77a3.541,3.541,0,0,0-7.082,0v1.58a3.2,3.2,0,1,0-6.407,0V84.5a3.177,3.177,0,0,0,.492,1.7h0c-2.644,21.5,2.935,17.132,2.83,24.148Z" transform="translate(-147.494 -72.387)" fill="#ffcec0" fill-rule="evenodd"/>
      </g>
      <rect id="Rect치ngulo_405192" data-name="Rect치ngulo 405192" width="27.314" height="10.883" rx="5.441" transform="translate(55.132 61.068)" fill="#85caff"/>
      <path id="Trazado_978647" data-name="Trazado 978647" d="M42.085,72.056h5.807a1.592,1.592,0,1,0,0-3.184H42.085a1.592,1.592,0,0,0,0,3.184Zm57.678,0a1.592,1.592,0,0,0,0-3.184H91.319a1.592,1.592,0,0,0,0,3.184Zm-70.2-24.594a9.554,9.554,0,0,0,18.841,0Zm3.859-3.183H44.544L38.981,32.837ZM26.245,45.87a1.592,1.592,0,0,1,1.591-1.591h2.044l6.557-13.491h-3.1a1.592,1.592,0,0,1,0-3.184h17.24a1.592,1.592,0,0,1,0,3.184H41.526l6.557,13.491h2.044a1.592,1.592,0,0,1,1.591,1.591,12.737,12.737,0,0,1-25.473,0Zm82.182-1.591-5.561-11.442L97.3,44.279Zm3.86,3.183H93.446a9.554,9.554,0,0,0,18.841,0ZM92.441,27.6h16.072a1.592,1.592,0,0,1,0,3.184h-3.1l6.557,13.491h2.043A1.591,1.591,0,0,1,115.6,45.87a12.736,12.736,0,1,1-25.472,0,1.591,1.591,0,0,1,1.591-1.591h2.043l6.557-13.491h-7.88a1.592,1.592,0,0,1,0-3.184ZM87.177,18.91a1.587,1.587,0,0,0,.856-.25L91.9,16.192a1.592,1.592,0,1,0-1.713-2.683l-3.864,2.468a1.592,1.592,0,0,0,.858,2.933ZM68.532,9.9a1.592,1.592,0,0,0,1.591-1.591V4.591a1.592,1.592,0,1,0-3.184,0V8.306A1.592,1.592,0,0,0,68.532,9.9ZM56.694,11.728a1.592,1.592,0,0,0,2.495-1.977L56.64,6.535a1.592,1.592,0,0,0-2.5,1.977l2.549,3.216Zm21.441.259a1.59,1.59,0,0,0,2.235-.259l2.548-3.216a1.591,1.591,0,1,0-2.494-1.977l-2.55,3.216a1.592,1.592,0,0,0,.261,2.236Zm-32.967,4.2,3.864,2.468a1.591,1.591,0,1,0,1.712-2.683l-3.864-2.468a1.591,1.591,0,1,0-1.712,2.683ZM56.105,29.359a1.73,1.73,0,0,0,3.46,0V23.226a1.73,1.73,0,1,0-3.46,0Zm6.643-6.134v5.725a2.08,2.08,0,0,0,4.16,0V21.588a2.08,2.08,0,0,0-4.16,0Zm7.344-1.638V25.7a5.449,5.449,0,0,1,3.157-1H74.7V20.7a2.306,2.306,0,0,0-4.612,0v.885Zm7.795.215v2.89H82.14V21.8a2.127,2.127,0,0,0-4.253,0Zm4.767,6.074c2.027,0,3.382.625,4.144,1.91,1.06,1.789,1.423,4.749.989,8.124-.681,5.319-2.34,7.671-4.439,10.65A44.374,44.374,0,0,0,79.775,54.3a14.7,14.7,0,0,0-1.581,5.181H59.5l.05-3.292a9.377,9.377,0,0,0-1.627-5.747c-1.263-2.1-2.817-4.688-1.624-16.412a4.9,4.9,0,0,0,5-1.179,5.252,5.252,0,0,0,7.127-.055,5.5,5.5,0,0,0,4.828,2.879h2.515A17.369,17.369,0,0,0,69.62,46.277a1.591,1.591,0,1,0,3.142.51c.834-5.13,3.844-7.677,6.263-9.724.209-.176.412-.347.607-.515,1.319-1.136,1.2-2.174,1-2.692-.23-.625-.855-1.368-2.51-1.368H73.249a2.306,2.306,0,0,1,0-4.611h9.406Zm-1.8,36.955a2.174,2.174,0,0,0-2.174-2.172H58.894a2.174,2.174,0,0,0-2.173,2.172v3.355a2.175,2.175,0,0,0,2.173,2.172H78.678a2.175,2.175,0,0,0,2.174-2.172Zm-27.469-33.4a4.9,4.9,0,0,1-.461-2.074V23.226a4.91,4.91,0,0,1,7.349-4.265,5.255,5.255,0,0,1,7.744-1.56,5.481,5.481,0,0,1,8.855.126A5.307,5.307,0,0,1,85.324,21.8v3.221a6.817,6.817,0,0,1,4.214,3.138c1.436,2.422,1.936,6.027,1.406,10.152-.782,6.1-2.827,9.005-4.994,12.079a41.03,41.03,0,0,0-3.338,5.344,11.615,11.615,0,0,0-1.287,4.44,5.355,5.355,0,0,1,2.71,4.653v3.355a5.362,5.362,0,0,1-5.357,5.356H58.894a5.362,5.362,0,0,1-5.356-5.356V64.832a5.357,5.357,0,0,1,2.767-4.686l.06-4.01a6.294,6.294,0,0,0-1.172-4.059c-1.589-2.645-3.568-5.935-1.811-20.644ZM42.084,80.21h20.7a1.591,1.591,0,1,0,0-3.183h-20.7a1.591,1.591,0,1,0,0,3.183Zm0,8.154h20.7a1.591,1.591,0,1,0,0-3.183h-20.7a1.591,1.591,0,1,0,0,3.183Zm35.389-9.745a1.591,1.591,0,0,0,1.591,1.591h20.7a1.591,1.591,0,1,0,0-3.183h-20.7A1.591,1.591,0,0,0,77.473,78.618Zm1.591,9.745h20.7a1.591,1.591,0,1,0,0-3.183h-20.7a1.591,1.591,0,1,0,0,3.183ZM33.943,59.519a1.591,1.591,0,0,1,1.591,1.591V93.093H64.505a8.968,8.968,0,0,1,4.827,1.42V76.129a1.591,1.591,0,0,1,3.183,0V94.513a8.963,8.963,0,0,1,4.827-1.42h28.97V61.111a1.592,1.592,0,0,1,3.184,0V94.685a1.591,1.591,0,0,1-1.591,1.591H77.342A5.833,5.833,0,0,0,72.3,99.211a1.594,1.594,0,0,1-2.762,0A5.831,5.831,0,0,0,64.5,96.276H33.943a1.592,1.592,0,0,1-1.592-1.591V61.111a1.592,1.592,0,0,1,1.592-1.591ZM116.892,56.4v45.681a1.592,1.592,0,0,1-1.591,1.591H26.548a1.592,1.592,0,0,1-1.591-1.591V56.4a1.592,1.592,0,0,1,3.184,0v44.089h85.57V56.4a1.591,1.591,0,1,1,3.183,0Z" fill-rule="evenodd"/>
    </g>
  </g>
</svg>
