<svg xmlns="http://www.w3.org/2000/svg" xmlns:xlink="http://www.w3.org/1999/xlink" width="108" height="108" viewBox="0 0 108 108">
  <defs>
    <filter id="Trazado_904820" x="0" y="0" width="108" height="108" filterUnits="userSpaceOnUse">
      <feOffset dy="3" input="SourceAlpha"/>
      <feGaussianBlur stdDeviation="3" result="blur"/>
      <feFlood flood-opacity="0.161"/>
      <feComposite operator="in" in2="blur"/>
      <feComposite in="SourceGraphic"/>
    </filter>
  </defs>
  <g id="_35" data-name="35" transform="translate(-722 -5127)">
    <g id="Icono" transform="translate(731 5133)">
      <g transform="matrix(1, 0, 0, 1, -9, -6)" filter="url(#Trazado_904820)">
        <g id="Trazado_904820-2" data-name="Trazado 904820" transform="translate(9 6)" fill="#dbe7fc">
          <path d="M 45 88.5 C 39.12687683105469 88.5 33.43022537231445 87.35007476806641 28.06830024719238 85.08217620849609 C 22.88852500915527 82.89131164550781 18.23629951477051 79.75458526611328 14.2408504486084 75.75914764404297 C 10.24541282653809 71.76370239257812 7.108687400817871 67.11147308349609 4.917825222015381 61.93170166015625 C 2.649924993515015 56.56977462768555 1.5 50.87312316894531 1.5 45 C 1.5 39.12687683105469 2.649924993515015 33.43022537231445 4.917825222015381 28.06830024719238 C 7.108687400817871 22.88852500915527 10.24541282653809 18.23629951477051 14.2408504486084 14.2408504486084 C 18.23629951477051 10.24541282653809 22.88852500915527 7.108687400817871 28.06830024719238 4.917825222015381 C 33.43022537231445 2.649924993515015 39.12687683105469 1.5 45 1.5 C 50.87312316894531 1.5 56.56977462768555 2.649924993515015 61.93170166015625 4.917825222015381 C 67.11147308349609 7.108687400817871 71.76370239257812 10.24541282653809 75.75914764404297 14.2408504486084 C 79.75458526611328 18.23629951477051 82.89131164550781 22.88852500915527 85.08217620849609 28.06830024719238 C 87.35007476806641 33.43022537231445 88.5 39.12687683105469 88.5 45 C 88.5 50.87312316894531 87.35007476806641 56.56977462768555 85.08217620849609 61.93170166015625 C 82.89131164550781 67.11147308349609 79.75458526611328 71.76370239257812 75.75914764404297 75.75914764404297 C 71.76370239257812 79.75458526611328 67.11147308349609 82.89131164550781 61.93170166015625 85.08217620849609 C 56.56977462768555 87.35007476806641 50.87312316894531 88.5 45 88.5 Z" stroke="none"/>
          <path d="M 45 3 C 39.32871246337891 3 33.82865524291992 4.110054016113281 28.65262985229492 6.299339294433594 C 23.65165710449219 8.414573669433594 19.15968322753906 11.44334411621094 15.301513671875 15.301513671875 C 11.44334411621094 19.15968322753906 8.414573669433594 23.65165710449219 6.299339294433594 28.65262985229492 C 4.110054016113281 33.82865524291992 3 39.32871246337891 3 45 C 3 50.67128753662109 4.110054016113281 56.17134475708008 6.299339294433594 61.34737396240234 C 8.414573669433594 66.34834289550781 11.44334411621094 70.84031677246094 15.301513671875 74.698486328125 C 19.15968322753906 78.55665588378906 23.65165710449219 81.58542633056641 28.65262985229492 83.70066070556641 C 33.82865524291992 85.88994598388672 39.32871246337891 87 45 87 C 50.67128753662109 87 56.17134475708008 85.88994598388672 61.34737396240234 83.70066070556641 C 66.34834289550781 81.58542633056641 70.84031677246094 78.55665588378906 74.698486328125 74.698486328125 C 78.55665588378906 70.84031677246094 81.58542633056641 66.34834289550781 83.70066070556641 61.34737396240234 C 85.88994598388672 56.17134475708008 87 50.67128753662109 87 45 C 87 39.32871246337891 85.88994598388672 33.82865524291992 83.70066070556641 28.65262985229492 C 81.58542633056641 23.65165710449219 78.55665588378906 19.15968322753906 74.698486328125 15.301513671875 C 70.84031677246094 11.44334411621094 66.34834289550781 8.414573669433594 61.34737396240234 6.299339294433594 C 56.17134475708008 4.110054016113281 50.67128753662109 3 45 3 M 45 0 C 69.85281372070312 0 90 20.14718627929688 90 45 C 90 69.85281372070312 69.85281372070312 90 45 90 C 20.14718627929688 90 0 69.85281372070312 0 45 C 0 20.14718627929688 20.14718627929688 0 45 0 Z" stroke="none" fill="#0d5d91"/>
        </g>
      </g>
    </g>
    <g id="scales_15161226" transform="translate(738.499 5140.5)">
      <rect id="Rectángulo_405193" data-name="Rectángulo 405193" width="7" height="27" transform="translate(34 10.999)" fill="#e6a355"/>
      <path id="Trazado_978660" data-name="Trazado 978660" d="M58.752,49.814a3.153,3.153,0,0,1-1.4,2.613,2.9,2.9,0,0,1-.513.275,3.29,3.29,0,0,1-3.163-.45l1.113.813a3.127,3.127,0,0,1-3.688,5.05l-1.013-.738a3.109,3.109,0,0,1,.675,4.363,3.176,3.176,0,0,1-1.338,1.05,2.948,2.948,0,0,1-1.175.238,3.071,3.071,0,0,1-1.85-.613l-.5-.363a2.511,2.511,0,0,1,1.025,2.013v.05a2.543,2.543,0,0,1-.488,1.425,2.473,2.473,0,0,1-3.488.55L38.189,62.6,17.225,51.351c-3.163-2.988-8.775-4.238-10.975-4.6L5,33H16.088a3.714,3.714,0,0,0,2.35-.825C20.176,30.75,24.113,28,28.751,28a33.355,33.355,0,0,1,5.875.463L42.5,35.5,57.477,47.288A3.115,3.115,0,0,1,58.752,49.814Z" transform="translate(1.25 7.001)" fill="#eac2aa"/>
      <path id="Trazado_978661" data-name="Trazado 978661" d="M2.505,0H7.051a2.5,2.5,0,0,1,2.5,2.5h0A2.5,2.5,0,0,1,7.051,5H2.5A2.5,2.5,0,0,1,0,2.5H0A2.5,2.5,0,0,1,2.5,0Z" transform="translate(32.075 72.098) rotate(-58.814)" fill="#a97866"/>
      <path id="Trazado_978662" data-name="Trazado 978662" d="M3.131,0H7.674A3.125,3.125,0,0,1,10.8,3.125h0A3.125,3.125,0,0,1,7.674,6.25H3.125A3.125,3.125,0,0,1,0,3.125H0A3.125,3.125,0,0,1,3.131,0Z" transform="translate(26.73 68.858) rotate(-58.814)" fill="#a97866"/>
      <rect id="Rectángulo_405194" data-name="Rectángulo 405194" width="12.047" height="6.25" rx="2.5" transform="translate(21.388 65.613) rotate(-58.802)" fill="#a97866"/>
      <path id="Trazado_978663" data-name="Trazado 978663" d="M19.569,52.086l2.356-3.9A3.125,3.125,0,0,0,20.87,43.9h0a3.125,3.125,0,0,0-4.3,1.051l-2.353,3.9a3.125,3.125,0,0,0,1.059,4.29h0a3.125,3.125,0,0,0,4.289-1.049Z" transform="translate(3.443 10.862)" fill="#a97866"/>
      <path id="Trazado_978664" data-name="Trazado 978664" d="M53.377,47.663c1.55-.85,3.438-1.738,8.625-1.913L63.252,32H46.276a2.43,2.43,0,0,1-1.113-.263L36.939,27.6a5.473,5.473,0,0,0-2.513-.6,5.654,5.654,0,0,0-4.088,1.75l-7.525,7.925a3.189,3.189,0,0,0,4.625,4.388l6.325-5.875a1.25,1.25,0,0,1,1.563-.113Z" transform="translate(5.5 6.751)" fill="#a97866"/>
      <rect id="Rectángulo_405195" data-name="Rectángulo 405195" width="7" height="18" rx="1" transform="translate(1 37.999)" fill="#e4f1ff"/>
      <rect id="Rectángulo_405196" data-name="Rectángulo 405196" width="6" height="19" rx="1" transform="translate(68 35.999)" fill="#e4f1ff"/>
      <circle id="Elipse_11550" data-name="Elipse 11550" cx="6.5" cy="6.5" r="6.5" transform="translate(31 0.999)" fill="#fbba6a"/>
      <path id="Trazado_978665" data-name="Trazado 978665" d="M4,17H21.5v5a3.75,3.75,0,0,1-3.75,3.75h-10A3.75,3.75,0,0,1,4,22Z" transform="translate(1 4.25)" fill="#fbba6a"/>
      <path id="Trazado_978666" data-name="Trazado 978666" d="M42,17H59.5v5a3.75,3.75,0,0,1-3.75,3.75h-10A3.75,3.75,0,0,1,42,22Z" transform="translate(10.502 4.25)" fill="#fbba6a"/>
      <path id="Trazado_978667" data-name="Trazado 978667" d="M73.753,8.75a1.25,1.25,0,0,0,0-2.5H44.889a7.492,7.492,0,0,0-14.776,0H1.25a1.25,1.25,0,0,0,0,2.5H11.48l-7.345,11.6a1.236,1.236,0,0,0-.385.9v5a5,5,0,0,0,5,5h10a5,5,0,0,0,5-5v-5a1.236,1.236,0,0,0-.385-.9L16.021,8.75H30.114A7.469,7.469,0,0,0,40,14.563V32.5h-.075a6.931,6.931,0,0,0-4.458,1.636c-.155-.024-.309-.049-.468-.071V17.5a1.25,1.25,0,1,0-2.5,0V33.83c-.8-.048-1.625-.079-2.5-.079-4.933,0-9.075,2.793-11.1,4.454a2.45,2.45,0,0,1-1.563.546H8.75a2.5,2.5,0,0,0-2.5-2.5H2.5a2.5,2.5,0,0,0-2.5,2.5V55a2.5,2.5,0,0,0,2.5,2.5H6.25a2.5,2.5,0,0,0,2.474-2.238,22.18,22.18,0,0,1,8.134,3.363l-.264.436a4.375,4.375,0,0,0,3.74,6.639,4.437,4.437,0,0,0,1.09-.138c0,.012,0,.025,0,.039a4.383,4.383,0,0,0,4.241,3.335,4.48,4.48,0,0,0,1.049-.125c.016,0,.03-.012.046-.016a.1.1,0,0,0,.008.048,4.375,4.375,0,0,0,4.241,3.338,4.42,4.42,0,0,0,.844-.1A3.75,3.75,0,0,0,38.71,73.2l1.08-1.784,3.671,2.689a3.75,3.75,0,0,0,5.946-2.835h.077a4.349,4.349,0,0,0,4.375-4.333c.11.009.22.025.33.025a4.358,4.358,0,0,0,4.055-6,4.054,4.054,0,0,0,1.059-.51,4.369,4.369,0,0,0,1.484-5.6,17.089,17.089,0,0,1,5.47-1.05,2.5,2.5,0,0,0,2.494,2.44H72.5a2.5,2.5,0,0,0,2.5-2.5V37.5A2.5,2.5,0,0,0,72.5,35h-3.75a2.5,2.5,0,0,0-2.5,2.5H51.777a1.2,1.2,0,0,1-.551-.125l-8.213-4.125c-.165-.085-.339-.155-.511-.225V13.075A7.5,7.5,0,0,0,44.889,8.75H58.982l-7.345,11.6a1.236,1.236,0,0,0-.385.9v5a5,5,0,0,0,5,5h10a5,5,0,0,0,5-5v-5a1.236,1.236,0,0,0-.385-.9L63.522,8.75Zm-60,1.088L20.183,20H7.318Zm7.5,16.413a2.5,2.5,0,0,1-2.5,2.5h-10a2.5,2.5,0,0,1-2.5-2.5V22.5h15ZM6.25,55H2.5V38.751H6.25Zm13.125,7.927a1.875,1.875,0,0,1-.635-2.576l2.351-3.894a1.855,1.855,0,0,1,1.158-.85,1.9,1.9,0,0,1,.449-.055,1.875,1.875,0,0,1,1.635,2.794l-2.393,3.943c0,.01-.01.021-.015.031a1.875,1.875,0,0,1-2.55.608Zm5.339,3.233a1.866,1.866,0,0,1-.649-2.539c0-.01.015-.016.021-.026h0L26.443,59.7c.013-.02.019-.043.03-.063l.613-1.011a1.875,1.875,0,0,1,3.206,1.945l-3,4.958a1.861,1.861,0,0,1-1.156.85,1.881,1.881,0,0,1-1.428-.221ZM30.057,69.4a1.875,1.875,0,0,1-.625-2.576l2.356-3.889a1.861,1.861,0,0,1,1.155-.849,1.909,1.909,0,0,1,.45-.054,1.856,1.856,0,0,1,.968.271,1.875,1.875,0,0,1,.625,2.578l-1.145,1.894-1.209,2a1.875,1.875,0,0,1-2.575.625Zm6.526,2.5a1.25,1.25,0,1,1-2.137-1.3h0l.32-.528v-.006l1.7-2.82.325-.536a1.25,1.25,0,1,1,2.136,1.3ZM57.9,58.4a1.97,1.97,0,0,1-2.233-.151L52,55.563a1.251,1.251,0,1,0-1.475,2.02L54.2,60.269a4.738,4.738,0,0,0,.785.458,1.24,1.24,0,0,0,.328.359A1.875,1.875,0,0,1,53.1,64.114l-1-.734h0l-4.268-3.125a1.25,1.25,0,0,0-1.478,2.018L50.629,65.4A1.875,1.875,0,1,1,48.4,68.417l-.465-.336c-.011-.01-.021-.021-.033-.03h0L45.735,66.49a1.25,1.25,0,1,0-1.468,2.025l2.166,1.569a1.225,1.225,0,0,1,.473.789,1.25,1.25,0,0,1-1.966,1.209l-3.849-2.818a3.75,3.75,0,0,0-1.283-5.106,3.705,3.705,0,0,0-2.075-.541,4.338,4.338,0,0,0-4.69-4.056,4.361,4.361,0,0,0-5.4-4.209,4.407,4.407,0,0,0-.936.359,4.375,4.375,0,0,0-7.759-.545l-.791,1.313a25.432,25.432,0,0,0-9.4-3.764V41.251h8.588a5,5,0,0,0,3.143-1.109A15.9,15.9,0,0,1,30,36.251c1.161,0,2.25.049,3.271.138l-5.889,6.2a4.438,4.438,0,0,0,6.405,6.138l6.324-5.875L57.988,55.3a1.864,1.864,0,0,1,.764,1.515,1.894,1.894,0,0,1-.855,1.58ZM68.752,37.5H72.5V53.752h-3.75ZM50.089,39.6a3.675,3.675,0,0,0,1.688.4H66.252V51.31a17.5,17.5,0,0,0-7.268,1.635L41.55,40.807a2.5,2.5,0,0,0-3.138.215L32.05,46.935a1.934,1.934,0,0,1-3.3-1.371,1.894,1.894,0,0,1,.47-1.276l7.523-7.923a4.475,4.475,0,0,1,5.134-.9ZM61.252,9.838,67.685,20H54.819Zm7.5,16.413a2.5,2.5,0,0,1-2.5,2.5h-10a2.5,2.5,0,0,1-2.5-2.5V22.5h15ZM37.5,12.5a5,5,0,1,1,5-5A5,5,0,0,1,37.5,12.5Z" transform="translate(0 0)" fill="#373737"/>
    </g>
  </g>
</svg>
