<svg xmlns="http://www.w3.org/2000/svg" xmlns:xlink="http://www.w3.org/1999/xlink" width="108" height="108" viewBox="0 0 108 108">
  <defs>
    <filter id="Trazado_978624" x="0" y="0" width="108" height="108" filterUnits="userSpaceOnUse">
      <feOffset dy="3" input="SourceAlpha"/>
      <feGaussianBlur stdDeviation="3" result="blur"/>
      <feFlood flood-opacity="0.161"/>
      <feComposite operator="in" in2="blur"/>
      <feComposite in="SourceGraphic"/>
    </filter>
  </defs>
  <g id="_40" data-name="40" transform="translate(-198.627 -7388)">
    <g id="Grupo_1143760" data-name="Grupo 1143760" transform="translate(207.627 7394)">
      <g transform="matrix(1, 0, 0, 1, -9, -6)" filter="url(#Trazado_978624)">
        <g id="Trazado_978624-2" data-name="Trazado 978624" transform="translate(9 6)" fill="#fbf8e2">
          <path d="M 45 88.5 C 39.12687683105469 88.5 33.43022537231445 87.35007476806641 28.06830024719238 85.08217620849609 C 22.88852500915527 82.89131164550781 18.23629951477051 79.75458526611328 14.2408504486084 75.75914764404297 C 10.24541282653809 71.76370239257812 7.108687400817871 67.11147308349609 4.917825222015381 61.93170166015625 C 2.649924993515015 56.56977462768555 1.5 50.87312316894531 1.5 45 C 1.5 39.12687683105469 2.649924993515015 33.43022537231445 4.917825222015381 28.06830024719238 C 7.108687400817871 22.88852500915527 10.24541282653809 18.23629951477051 14.2408504486084 14.2408504486084 C 18.23629951477051 10.24541282653809 22.88852500915527 7.108687400817871 28.06830024719238 4.917825222015381 C 33.43022537231445 2.649924993515015 39.12687683105469 1.5 45 1.5 C 50.87312316894531 1.5 56.56977462768555 2.649924993515015 61.93170166015625 4.917825222015381 C 67.11147308349609 7.108687400817871 71.76370239257812 10.24541282653809 75.75914764404297 14.2408504486084 C 79.75458526611328 18.23629951477051 82.89131164550781 22.88852500915527 85.08217620849609 28.06830024719238 C 87.35007476806641 33.43022537231445 88.5 39.12687683105469 88.5 45 C 88.5 50.87312316894531 87.35007476806641 56.56977462768555 85.08217620849609 61.93170166015625 C 82.89131164550781 67.11147308349609 79.75458526611328 71.76370239257812 75.75914764404297 75.75914764404297 C 71.76370239257812 79.75458526611328 67.11147308349609 82.89131164550781 61.93170166015625 85.08217620849609 C 56.56977462768555 87.35007476806641 50.87312316894531 88.5 45 88.5 Z" stroke="none"/>
          <path d="M 45 3 C 39.32871246337891 3 33.82865524291992 4.110054016113281 28.65262985229492 6.299339294433594 C 23.65165710449219 8.414573669433594 19.15968322753906 11.44334411621094 15.301513671875 15.301513671875 C 11.44334411621094 19.15968322753906 8.414573669433594 23.65165710449219 6.299339294433594 28.65262985229492 C 4.110054016113281 33.82865524291992 3 39.32871246337891 3 45 C 3 50.67128753662109 4.110054016113281 56.17134475708008 6.299339294433594 61.34737396240234 C 8.414573669433594 66.34834289550781 11.44334411621094 70.84031677246094 15.301513671875 74.698486328125 C 19.15968322753906 78.55665588378906 23.65165710449219 81.58542633056641 28.65262985229492 83.70066070556641 C 33.82865524291992 85.88994598388672 39.32871246337891 87 45 87 C 50.67128753662109 87 56.17134475708008 85.88994598388672 61.34737396240234 83.70066070556641 C 66.34834289550781 81.58542633056641 70.84031677246094 78.55665588378906 74.698486328125 74.698486328125 C 78.55665588378906 70.84031677246094 81.58542633056641 66.34834289550781 83.70066070556641 61.34737396240234 C 85.88994598388672 56.17134475708008 87 50.67128753662109 87 45 C 87 39.32871246337891 85.88994598388672 33.82865524291992 83.70066070556641 28.65262985229492 C 81.58542633056641 23.65165710449219 78.55665588378906 19.15968322753906 74.698486328125 15.301513671875 C 70.84031677246094 11.44334411621094 66.34834289550781 8.414573669433594 61.34737396240234 6.299339294433594 C 56.17134475708008 4.110054016113281 50.67128753662109 3 45 3 M 45 0 C 69.85281372070312 0 90 20.14718627929688 90 45 C 90 69.85281372070312 69.85281372070312 90 45 90 C 20.14718627929688 90 0 69.85281372070312 0 45 C 0 20.14718627929688 20.14718627929688 0 45 0 Z" stroke="none" fill="#bcac89"/>
        </g>
      </g>
    </g>
    <g id="political-science_17940554" transform="translate(192.208 7444.768)">
      <circle id="Elipse_11551" data-name="Elipse 11551" cx="22.6" cy="22.6" r="22.6" transform="translate(28.186 -16.441) rotate(-45)" fill="#edf6ff"/>
      <g id="Grupo_1143773" data-name="Grupo 1143773" transform="translate(14.232 -18.521)">
        <path id="Trazado_978668" data-name="Trazado 978668" d="M206.267,141.3a5.95,5.95,0,0,1-11.9,0h11.9Z" transform="translate(-166.925 -141.301)" fill="#85caff" fill-rule="evenodd"/>
        <path id="Trazado_978669" data-name="Trazado 978669" d="M26.523,390.7h56.3a.536.536,0,0,1,.29.986,6.19,6.19,0,0,0-2.842,5.2,6.612,6.612,0,0,0,2.79,5.624.536.536,0,0,1-.3.982H26.523a6.4,6.4,0,0,1,0-12.791Z" transform="translate(-20.128 -351.424)" fill="#85caff" fill-rule="evenodd"/>
        <path id="Trazado_978670" data-name="Trazado 978670" d="M84.251,431.311h8.42v10.975l-4.284-3.159-4.136,3.159Z" transform="translate(-74.152 -385.636)" fill="#ffeb87" fill-rule="evenodd"/>
        <path id="Trazado_978671" data-name="Trazado 978671" d="M188.256,154.494a28.382,28.382,0,0,1-25.49,28.233v3.443h-5.778v-3.443a28.382,28.382,0,0,1-25.49-28.233h5.779a22.6,22.6,0,1,0,45.2,0Z" transform="translate(-113.958 -152.416)" fill="#c9b0a9" fill-rule="evenodd"/>
      </g>
      <circle id="Elipse_11552" data-name="Elipse 11552" cx="2.882" cy="2.882" r="2.882" transform="translate(57.269 -30.288)" fill="#ffd987"/>
      <path id="Trazado_978672" data-name="Trazado 978672" d="M365.35,141.3a5.95,5.95,0,0,1-11.9,0h11.9Z" transform="translate(-286.722 -159.822)" fill="#85caff" fill-rule="evenodd"/>
      <path id="Trazado_978673" data-name="Trazado 978673" d="M230.8,355.618h17.266a2.848,2.848,0,0,1,2.526,1.458l2.348,4.067H225.926l2.348-4.067A2.848,2.848,0,0,1,230.8,355.618Z" transform="translate(-179.282 -340.385)" fill="#9b827a" fill-rule="evenodd"/>
      <path id="Trazado_978674" data-name="Trazado 978674" d="M87.406,28.8H83.828a23.7,23.7,0,0,1-47.352,0H32.9A27.172,27.172,0,0,0,57.372,54.838a1.1,1.1,0,0,1,.992,1.1v2.34h3.573v-2.34a1.1,1.1,0,0,1,.992-1.1A27.171,27.171,0,0,0,87.406,28.8ZM51.518,60.479a1.749,1.749,0,0,0-1.57.907L48.554,63.8H71.748l-1.394-2.414a1.748,1.748,0,0,0-1.57-.907H51.518Zm21.76,10.609a7.253,7.253,0,0,1,2.068-5.082H20.627a5.293,5.293,0,0,0,0,10.585h2.6V72.4H21.4a1.1,1.1,0,0,1,0-2.205H55.848a1.1,1.1,0,0,1,0,2.205H33.853v4.189H75.335a8.038,8.038,0,0,1-2.058-5.5ZM31.648,72.4v7.689L29.12,78.227a1.1,1.1,0,0,0-1.322.011l-2.365,1.805V72.4h6.215Zm7.005-44.7a21.5,21.5,0,1,1,21.5,21.5A21.522,21.522,0,0,1,38.654,27.7Zm50.978,0A29.483,29.483,0,0,1,64.143,56.914v1.361h4.641a3.928,3.928,0,0,1,3.481,2.01l2.03,3.517h2.636a1.638,1.638,0,0,1,.888,3.014,5.073,5.073,0,0,0-2.337,4.273,5.548,5.548,0,0,0,2.3,4.706,1.637,1.637,0,0,1-.906,3H33.854v3.477a1.1,1.1,0,0,1-1.757.887l-3.618-2.668L25,83.149a1.1,1.1,0,0,1-1.772-.876V78.8h-2.6a7.5,7.5,0,0,1,0-14.995h25.38l2.03-3.517a3.929,3.929,0,0,1,3.481-2.01h4.641V56.914A29.484,29.484,0,0,1,30.67,27.7a1.1,1.1,0,0,1,1.1-1.1h4.7a23.7,23.7,0,0,1,47.352,0h4.7a1.1,1.1,0,0,1,1.1,1.1ZM47.623,30.231A4.377,4.377,0,0,1,43.4,26.966h8.456a4.377,4.377,0,0,1-4.228,3.265Zm-1.991-5.47h3.983l-1.992-4.286Zm13.219-8.023a1.3,1.3,0,1,0,1.3-1.3A1.3,1.3,0,0,0,58.851,16.738Zm13.828,3.737-1.992,4.286H74.67Zm4.228,6.49a4.37,4.37,0,0,1-8.456,0Zm-29.283,5.47a6.58,6.58,0,0,1-6.573-6.572,1.1,1.1,0,0,1,1.1-1.1H43.2l2.729-5.873a1.1,1.1,0,0,1,.4-2.131h3.267a4.363,4.363,0,0,0,1.742-.329l.72-.3a6.56,6.56,0,0,1,2.58-.5h2.189a3.5,3.5,0,0,1,6.651,0h2.189a6.56,6.56,0,0,1,2.58.5l.721.3a4.348,4.348,0,0,0,1.741.329h3.265a1.1,1.1,0,0,1,.4,2.131L77.1,24.761H78.15a1.1,1.1,0,0,1,1.1,1.1,6.574,6.574,0,0,1-13.147,0,1.1,1.1,0,0,1,1.1-1.1h1.049l2.695-5.8h-.243a6.572,6.572,0,0,1-2.581-.495l-.72-.3a4.369,4.369,0,0,0-1.742-.331H63.477a3.516,3.516,0,0,1-2.222,2.224V41.356h3.585a1.1,1.1,0,0,1,0,2.2H55.463a1.1,1.1,0,0,1,0-2.2h3.586V20.065a3.52,3.52,0,0,1-2.224-2.224H54.637a4.378,4.378,0,0,0-1.741.331l-.72.3a6.577,6.577,0,0,1-2.58.495h-.242l2.694,5.8h1.048a1.1,1.1,0,0,1,1.1,1.1,6.579,6.579,0,0,1-6.573,6.572ZM68.484,71.3a1.1,1.1,0,0,1-1.1,1.1H62.333a1.1,1.1,0,0,1,0-2.205h5.047A1.1,1.1,0,0,1,68.484,71.3Z" transform="translate(0 -44.145)" fill-rule="evenodd"/>
    </g>
  </g>
</svg>
